<?xml version="1.0" standalone="no"?>
<!DOCTYPE svg PUBLIC "-//W3C//DTD SVG 20010904//EN"
 "http://www.w3.org/TR/2001/REC-SVG-20010904/DTD/svg10.dtd">
<svg version="1.0" xmlns="http://www.w3.org/2000/svg"
 width="800.000000pt" height="800.000000pt" viewBox="0 0 800.000000 800.000000"
 preserveAspectRatio="xMidYMid meet">

<g transform="translate(0.000000,800.000000) scale(0.100000,-0.100000)"
fill="#000000" stroke="none">
<path d="M3737 7989 c-170 -10 -439 -49 -612 -88 -749 -170 -1408 -533 -1951
-1075 -1116 -1116 -1470 -2777 -907 -4256 292 -767 828 -1437 1518 -1897 513
-342 1095 -559 1709 -638 214 -27 572 -43 645 -29 l31 7 0 1453 0 1454 -305 0
-305 0 0 505 0 505 304 0 305 0 4 448 c3 368 7 462 21 535 117 601 455 880
1124 928 81 5 332 9 557 7 l410 -3 0 -505 0 -505 -340 -6 c-218 -4 -353 -10
-375 -17 -92 -31 -146 -81 -172 -161 -8 -24 -13 -152 -15 -378 l-4 -343 456 0
456 0 -6 -57 c-4 -32 -28 -258 -54 -503 l-47 -445 -402 -3 -402 -2 0 -1335 c0
-734 2 -1335 5 -1335 16 0 231 92 350 149 537 259 1010 636 1392 1111 96 119
286 401 360 535 497 894 637 1934 392 2920 -276 1110 -1017 2052 -2032 2580
-651 339 -1363 489 -2110 444z"/>
</g>
</svg>
